<?xml version="1.0" encoding="utf-8"?>
<!-- Generator: Adobe Illustrator 26.0.1, SVG Export Plug-In . SVG Version: 6.00 Build 0)  -->
<svg version="1.1" id="Layer_1" xmlns="http://www.w3.org/2000/svg" xmlns:xlink="http://www.w3.org/1999/xlink" x="0px" y="0px"
	 viewBox="0 0 300 300" style="enable-background:new 0 0 300 300;" xml:space="preserve">
<style type="text/css">
	.st0{fill:#F9F9F9;}
</style>
<g>
	<path class="st0" d="M172.9,262.5c-15.2,4.2-30.5,4.3-46-0.1c-2,3.4-3.9,6.8-5.9,10.2c-3.5,6.1-7,12.2-10.6,18.3
		c-2.9,4.9-6.5,5.1-10.1,0.7c-3.6-4.4-7.3-8.7-10.7-13.2c-1.4-1.8-2.8-2.2-4.9-1.9c-7,1.2-13.9,2.2-20.9,3.4c-2.6,0.4-4.7,0.2-6.2-2
		c-1.5-2.2-0.9-4.4,0.4-6.6c7.6-13,15.1-26.1,22.7-39.1c1.1-1.8,1-3.1-0.1-4.8c-31.7-50-1.9-116,56.6-125.5
		c45.7-7.4,89.1,25.4,94.5,71.4c2.3,19.5-1.7,37.6-12.3,54.3c-1.1,1.7-1.1,2.8-0.1,4.6c7.6,12.9,15,25.9,22.5,38.9
		c1.4,2.4,2.3,4.7,0.5,7.2c-1.7,2.3-4.1,2.2-6.7,1.8c-6.7-1.2-13.5-2.1-20.3-3.3c-2.3-0.4-3.7,0.1-5.2,2c-3.4,4.5-7.1,8.8-10.7,13.2
		c-3.5,4.2-7.2,4-9.9-0.7c-5.3-9.1-10.5-18.1-15.8-27.2C173.6,263.5,173.3,263.1,172.9,262.5z M150,111.3c-39.9,0-72,32.1-72,72
		c0,39.9,32.1,72,72,72.1c39.9,0,72-32.1,72-72C222,143.5,189.9,111.3,150,111.3z M104.5,280.7c4.3-7.5,8.4-14.5,12.6-21.7
		c-10.9-4.9-20.2-11.7-28.3-20.4c-5.7,10-11.3,19.6-17.2,29.9c5.8-0.9,10.9-1.6,15.9-2.6c3.1-0.6,5.4,0.3,7.3,2.7
		C97.8,272.5,101,276.4,104.5,280.7z M182.8,258.9c4.2,7.3,8.3,14.3,12.6,21.8c3.3-4,6.5-7.7,9.4-11.6c2.2-2.9,4.7-3.9,8.3-3.1
		c4.8,1,9.7,1.5,15.2,2.4c-5.9-10.3-11.5-20-17.2-29.9C203,247.3,193.8,254,182.8,258.9z"/>
	<path class="st0" d="M149.9,5.1c2.1,2.1,4.1,3.2,5.1,5c2.9,5.5,5.5,11.1,8.1,16.7c0.8,1.6,1.7,2.3,3.6,2.5
		c5.9,0.6,11.9,1.6,17.8,2.4c2.6,0.3,4.8,1.1,5.7,3.9c0.8,2.7-0.5,4.5-2.3,6.2c-4.2,4-8.3,8.1-12.6,11.9c-1.7,1.5-2.3,2.9-1.8,5.3
		c1.3,5.8,2.2,11.8,3.3,17.6c0.5,2.4,0.1,4.5-2,6c-2,1.4-4,1.1-6,0c-5.5-3-11.1-6.1-16.7-8.9c-1.1-0.5-2.9-0.5-4,0
		c-5.4,2.7-10.8,5.7-16.1,8.6c-2.2,1.2-4.4,1.9-6.6,0.2c-2.2-1.6-2.4-3.8-1.8-6.3c1.2-5.9,2.1-11.8,3.3-17.7c0.4-1.9,0-3.2-1.4-4.5
		c-4.4-4.1-8.7-8.3-13-12.4c-1.8-1.7-3.2-3.5-2.4-6.2c0.9-2.8,3-3.6,5.7-3.9c6-0.8,12.1-1.6,18.1-2.6c1.1-0.2,2.5-1.2,3-2.2
		c2.9-5.6,5.4-11.4,8.4-16.9C146,8.4,147.8,7.2,149.9,5.1z M164.8,69c-0.8-4.6-1.4-8.6-2.2-12.5c-0.6-2.8,0.1-5,2.2-6.9
		c3-2.7,5.8-5.6,9.2-8.8c-4.6-0.7-8.5-1.4-12.5-1.8c-3.1-0.3-4.8-1.8-6-4.5c-1.6-3.6-3.4-7-5.4-11.1c-1.9,3.8-3.6,7-4.9,10.3
		c-1.4,3.6-3.9,5.3-7.7,5.7c-3.6,0.3-7.2,0.9-10.5,1.3c2.7,2.9,5.3,5.9,8.1,8.6c2.2,2.1,3.2,4.3,2.4,7.4c-0.9,3.8-1.4,7.7-2.2,12.2
		c4-2.1,7.6-3.9,11.1-5.9c2.6-1.5,5-1.5,7.5,0C157.2,65,160.7,66.8,164.8,69z"/>
	<path class="st0" d="M238.2,130.1c-4.1,0-6.3-2.7-5.6-6.4c1-6,2.1-12,3.3-18c0.5-2.3,0.1-4-1.8-5.6c-4.3-3.8-8.4-8-12.6-11.9
		c-1.8-1.7-3.1-3.5-2.2-6.2c0.9-2.7,3-3.4,5.4-3.7c5.8-0.8,11.7-1.6,17.5-2.3c2.1-0.3,3.4-1.1,4.3-3.1c2.3-5.2,4.9-10.2,7.3-15.3
		c1.1-2.4,2.4-4.6,5.5-4.6c3.1,0,4.3,2.3,5.4,4.7c2.4,5.1,5,10.2,7.3,15.3c1,2.2,2.4,2.9,4.6,3.1c5.9,0.6,11.9,1.6,17.8,2.4
		c2.4,0.3,4,1.3,4.8,3.6c0.8,2.4-0.2,4.2-1.8,5.7c-4.6,4.4-9.2,8.7-13.6,13.2c-0.8,0.9-1.4,2.6-1.2,3.8c0.9,6.1,2.1,12.2,3.3,18.3
		c0.5,2.4,0.3,4.9-2.1,5.9c-1.7,0.7-4.3,0.8-5.9,0c-5.4-2.5-10.6-5.5-15.8-8.5c-2-1.1-3.5-1.3-5.5-0.1c-5.1,2.9-10.3,5.6-15.5,8.4
		C240,129.5,238.8,129.9,238.2,130.1z M236.2,87.2c2.8,3,5.2,5.9,8,8.6c2.3,2.2,3.3,4.5,2.5,7.7c-0.9,3.8-1.4,7.6-2.1,12
		c3.7-2,7-3.5,10.1-5.4c3.3-2.1,6.3-2,9.5,0.1c3.1,1.9,6.3,3.4,10,5.4c-0.8-4.5-1.3-8.5-2.2-12.4c-0.7-3,0.3-5.1,2.4-7.2
		c2.8-2.7,5.3-5.7,8.1-8.7c-3.4-0.5-6.9-1.2-10.5-1.4c-3.8-0.2-6.1-1.9-7.5-5.4c-1.4-3.4-3.1-6.6-5-10.5c-2.1,4.3-4,8-5.7,11.7
		c-1.1,2.5-3,3.7-5.7,4C244,86.2,240.1,86.7,236.2,87.2z"/>
	<path class="st0" d="M67.6,124.5c0.1,4.4-4,6.8-7.9,4.8c-5.4-2.8-10.8-5.7-16.1-8.7c-2-1.1-3.5-1.3-5.5-0.1
		c-5.2,3-10.5,5.7-15.8,8.6c-2.1,1.2-4.2,1.6-6.3,0.1c-2.1-1.5-2.3-3.6-1.9-6c1.2-6.1,2.4-12.2,3.3-18.3c0.2-1.3-0.5-3.1-1.4-4.1
		C11.7,96.4,7.2,92.2,2.8,88c-1.7-1.6-2.9-3.4-2.1-5.9c0.8-2.5,2.7-3.4,5.1-3.7c5.8-0.8,11.6-1.6,17.5-2.3c2.3-0.3,3.8-1.1,4.8-3.4
		c2.3-5.4,5.1-10.6,7.6-15.9c1-2.2,2.4-3.8,5-3.8c2.6,0,4,1.6,5.1,3.8c2.6,5.5,5.4,10.9,7.9,16.5c0.9,1.9,2.1,2.6,4.1,2.9
		c6,0.7,12.1,1.7,18.1,2.4c2.3,0.3,4.5,1.2,4.7,3.6c0.1,1.9-0.5,4.3-1.7,5.7c-4.1,4.5-8.6,8.6-13.1,12.7c-1.7,1.5-2,3-1.6,5.1
		C65.3,112,66.5,118.4,67.6,124.5z M55.4,115.5c-0.7-4.1-1-7.7-2-11.1c-1.1-3.9,0.1-6.7,3-9.3c2.6-2.3,4.9-5.2,7.3-7.8
		c-3.3-0.5-6.5-1.3-9.8-1.3c-4.7-0.1-7.2-2.4-8.8-6.5c-1.2-3.1-2.8-6-4.5-9.5c-2,4.1-3.7,7.4-5.2,10.8c-1.4,3.2-3.5,4.8-7.1,5.1
		c-3.7,0.3-7.3,1-10.5,1.4c2.7,3,5.4,6.2,8.3,9.2c1.8,1.9,2.5,3.8,2,6.4c-0.9,4-1.5,8.2-2.3,12.7c4.1-2.2,7.8-4,11.4-6.1
		c2.3-1.3,4.4-1.3,6.6,0C47.6,111.4,51.2,113.3,55.4,115.5z"/>
	<path class="st0" d="M200.6,183.5c-0.1,27.8-22.9,50.6-50.8,50.6c-27.8-0.1-50.6-22.9-50.5-50.8c0.1-27.9,22.9-50.6,50.8-50.5
		C177.9,132.8,200.7,155.6,200.6,183.5z M150,143c-22.1,0-40.2,17.9-40.4,40.1c-0.2,22.2,18,40.5,40.3,40.6
		c22.2,0,40.5-18.2,40.4-40.5C190.3,161.1,172.2,143.1,150,143z"/>
	<path class="st0" d="M141.8,193.6c7.6-7.6,14.8-14.9,22.1-22.1c0.8-0.8,1.5-1.6,2.3-2.2c2.3-1.7,4.7-1.6,6.7,0.4
		c2,2,2.1,4.4,0.5,6.7c-0.9,1.3-2.2,2.3-3.3,3.5c-8.2,8.3-16.5,16.5-24.7,24.7c-3.9,3.8-7.1,3.4-9.8-1.2c-3-5.1-5.9-10.2-8.8-15.3
		c-2-3.6-1.4-6.5,1.5-8c2.8-1.5,5.4-0.5,7.4,2.9C137.6,186.3,139.6,189.7,141.8,193.6z"/>
</g>
</svg>
