<?xml version="1.0" encoding="utf-8"?>
<!-- Generator: Adobe Illustrator 26.0.1, SVG Export Plug-In . SVG Version: 6.00 Build 0)  -->
<svg version="1.1" id="Layer_1" xmlns="http://www.w3.org/2000/svg" xmlns:xlink="http://www.w3.org/1999/xlink" x="0px" y="0px"
	 viewBox="0 0 300 300" style="enable-background:new 0 0 300 300;" xml:space="preserve">
<style type="text/css">
	.st0{fill:#F9F9F9;}
</style>
<g>
	<path class="st0" d="M0,255.4c0.5-1.9,0.9-3.8,1.5-5.6c4.2-14.4,17-24.8,32-26c0.5,0,0.9-0.1,1.8-0.2c0-1.3,0-2.6,0-3.8
		c0-48.8,0-97.6,0-146.5c0-11.3,4.3-17.2,15.1-20.8c5.6-1.9,11.2-3.8,17-5.7c0-8.8,0-17.5,0-26.2c0-6.7,4.4-12.2,10.4-13.5
		c6.8-1.5,13.5,1.5,16.1,7.6c0.9,2.2,1.3,4.7,1.4,7.1c0.2,5,0.1,10.1,0.1,15.6c6.1-2,11.8-3.9,17.5-5.8
		c18.3-6.2,36.6-12.3,54.8-18.5c2.8-0.9,4.8-0.5,6.9,1.5c13.2,12.8,26.4,25.5,39.6,38.3c4.2,4,6.2,8.8,6.2,14.6
		c-0.1,17.3,0,34.6,0,51.8c0,2.5-0.5,4.5-3.1,5.4c-2.8,1-5.6-1.1-5.7-4.5c-0.1-3.8,0-7.6,0-11.4c0-13.6-0.1-27.1,0-40.7
		c0-3.8-1.2-6.8-3.9-9.4c-10.7-10.3-21.4-20.6-32.4-31.3c0,36.7,0,72.9,0,109.4c1.2,0,2.5,0,3.7,0c23.5,0,47.1,0,70.6,0
		c10.9,0,16.3,5.5,16.3,16.4c0,22.3,0,44.5,0,66.8c0,1.1,0,2.3,0,3.4c3.8,0.3,7.5,0.3,11,0.9c13.1,2.5,22.8,14,23,27.4
		c0.2,10.2,0.1,20.3,0,30.5c0,6-4.1,10.3-10.1,11c-1.3,0.1-2.5,0.1-3.8,0.1c-90.7,0-181.4,0-272.1,0.1c-6.7,0-11.5-2.1-14-8.6
		C0,274.9,0,265.2,0,255.4z M166.1,87.7c-1.3,0.4-2.2,0.6-3,0.9c-22.7,7.6-45.4,15.3-68.2,22.9c-7,2.4-14,4.9-21.1,7
		c-1.6,0.5-3.9,0-5.3-1c-0.9-0.7-1.3-3.2-0.8-4.4c0.5-1.3,2.2-2.4,3.7-2.9c9.9-3.5,19.9-6.7,29.9-10.1c20.7-7,41.4-13.9,62-20.9
		c1-0.3,2.5-1.2,2.5-1.8c0.2-7,0.1-14,0.1-21.2c-1.2,0.3-2,0.5-2.8,0.8c-18,6.1-36,12.1-54,18.2C97.6,79.1,86,83,74.3,86.9
		c-3.5,1.2-5.9,0.3-6.8-2.4c-0.8-2.6,0.6-4.8,4.1-5.9c2.4-0.8,4.8-1.6,7.2-2.4c28.3-9.5,56.5-19,84.8-28.5c1.9-0.6,2.7-1.4,2.6-3.5
		c-0.2-3.9-0.1-7.8-0.1-11.7c0-3.1,0-6.1,0-9.5c-1.5,0.4-2.5,0.7-3.5,1.1C125.9,36.3,89.1,48.7,52.4,61c-6.2,2.1-8.3,5.1-8.3,11.8
		c0,69.4,0,138.8,0,208.2c0,1,0.1,2.1,0.1,3.2c7.8,0,15.4,0,23.1,0c0-10.5,0-20.9,0-31.2c0-6.9,2.6-10.5,9.3-12.3
		c12.7-3.6,25.3-7.1,38-10.6c8.3-2.3,13.6,1.8,13.6,10.4c0,13.5,0,26.9,0,40.4c0,1.1,0,2.1,0,3.3c12.7,0,25.2,0,37.7,0
		c0-33.9,0-67.6,0-101.5c-1,0.3-1.7,0.4-2.4,0.7c-12.4,4.2-24.8,8.3-37.1,12.5c-5.7,1.9-11.4,3.9-17.2,5.7c-2.6,0.8-4.8-0.3-5.6-2.7
		c-0.8-2.4,0.3-4.5,2.9-5.6c0.6-0.3,1.3-0.4,1.9-0.6c18.4-6.2,36.7-12.4,55.1-18.5c2-0.7,2.7-1.6,2.6-3.7c-0.2-3.6,0-7.2,0-10.8
		c0-2.8,0-5.5,0-8.6c-1.3,0.4-2.2,0.6-3,0.9c-22.2,7.4-44.3,14.9-66.5,22.3c-7.6,2.5-15.1,5.2-22.8,7.5c-1.6,0.5-3.9,0-5.3-1
		c-0.9-0.7-1.4-3.2-0.8-4.4c0.6-1.3,2.4-2.5,3.9-3c16.8-5.8,33.6-11.4,50.4-17c13.9-4.7,27.7-9.3,41.5-14c0.9-0.3,2.3-1.3,2.3-2
		c0.2-6.9,0.1-13.8,0.1-21c-1.3,0.4-2.2,0.6-3.1,0.9c-26.2,8.8-52.5,17.6-78.7,26.5c-3.7,1.2-7.3,2.7-11.1,3.6
		c-1.5,0.3-3.8-0.4-4.8-1.5c-0.8-1-0.8-3.4-0.2-4.7c0.5-1.1,2.3-1.9,3.7-2.4c13.3-4.5,26.6-9,39.9-13.5
		c17.3-5.8,34.5-11.6,51.8-17.5c1-0.3,2.4-1.4,2.4-2.2C166.2,101.8,166.1,95,166.1,87.7z M175.2,145.6c0,37.4,0,74.3,0,111.3
		c21.6,0,42.9,0,64.2,0c0.1-0.4,0.2-0.6,0.2-0.7c0-1.4,0-2.7,0.1-4.1c0.5-11,5.4-19.4,15-24.8c1.9-1.1,2.4-2.2,2.4-4.3
		c-0.1-23.2,0-46.5,0-69.7c0-6.1-1.6-7.7-7.6-7.7c-23.7,0-47.4,0-71.2,0C177.4,145.6,176.3,145.6,175.2,145.6z M175.1,284.3
		c21.6,0,42.9,0,64.4,0c0-6.2,0-12.2,0-18.1c-21.6,0-43,0-64.4,0C175.1,272.2,175.1,278.2,175.1,284.3z M248.7,256.8
		c14.1,0,28.2,0,42.4,0c1.1-15.1-7.2-24.3-21.7-24.5C259.5,232.2,246.9,240,248.7,256.8z M248.6,284.4c4.1,0,8.1,0,12.1,0
		c8.9,0,17.7,0,26.6,0c1.8,0,3.8,0,3.8-2.5c0.1-5.2,0-10.5,0-15.8c-14.3,0-28.4,0-42.5,0C248.6,272.3,248.6,278.2,248.6,284.4z
		 M119.2,237.9c-5.3,1.4-10,2.8-14.8,4c-1.9,0.5-2.4,1.4-2.4,3.2c0.1,12.2,0,24.4,0.1,36.6c0,0.8,0.1,1.5,0.2,2.4c5.7,0,11.3,0,17,0
		C119.2,268.8,119.2,253.6,119.2,237.9z M93.1,245.2c-4.8,1.3-9.4,2.7-14,3.8c-2.3,0.6-3.1,1.7-3.1,4.1c0.1,9.6,0,19.3,0.1,28.9
		c0,0.7,0.1,1.5,0.2,2.2c5.7,0,11.2,0,16.8,0C93.1,271.2,93.1,258.4,93.1,245.2z M35.1,284.4c0-6.3,0-12.3,0-18.3
		c-8.8,0-17.4,0-26.3,0c0,4,0,7.8,0,11.6c0,6.9-0.7,6.8,6.9,6.8C22.1,284.4,28.5,284.4,35.1,284.4z M9.2,256.9c8.8,0,17.3,0,26.1,0
		c0-4.2,0-8.2,0-12.1c0-4.1,0-8.1,0-12.1C22.2,232.5,9.8,244.1,9.2,256.9z M76.2,43.7c2.7-0.9,5-1.7,7.4-2.4c2.2-0.6,3.1-1.5,3-4
		c-0.3-5.1-0.1-10.1-0.1-15.2c0-1.1,0-2.2-0.4-3.2c-0.9-2.6-2.8-3.6-5.5-3.4c-2.6,0.2-4.4,1.6-4.5,4.2
		C76.1,27.6,76.2,35.5,76.2,43.7z"/>
	<path class="st0" d="M92.4,205.2c-0.7,0.7-1.7,2.5-3.1,3c-5.2,2.1-10.6,3.8-16,5.5c-2.6,0.8-4.9-0.4-5.7-2.7
		c-0.8-2.4,0.4-4.7,3.1-5.7c5.2-1.8,10.5-3.6,15.7-5.3C89.5,199.1,92.4,201.1,92.4,205.2z"/>
	<path class="st0" d="M215.7,215.2c-4.6,0-9.2-0.1-13.8,0c-14.1,0.4-15.6-0.8-15.1-15.3c0-0.9,0-1.8,0-2.6c0.2-4.4,3-7.4,7.4-7.4
		c14.3-0.1,28.7-0.1,43,0c4,0,7,2.7,7.3,6.6c0.3,4,0.3,8,0,12c-0.3,4.3-3.2,6.6-7.8,6.7C229.7,215.2,222.7,215.2,215.7,215.2z
		 M235.7,206.3c0-2.6,0-5.1,0-7.5c-13.5,0-26.7,0-39.9,0c0,2.6,0,5,0,7.5C209.1,206.3,222.2,206.3,235.7,206.3z"/>
	<path class="st0" d="M215.6,181.8c-6.7,0-13.5,0-20.2,0c-5.9,0-8.6-2.7-8.6-8.6c0-3-0.1-6.1,0-9.1c0.1-4.6,3-7.6,7.5-7.7
		c14.2-0.1,28.5-0.1,42.7,0c4.4,0,7.3,2.8,7.6,7.3c0.2,3.6,0.2,7.2,0,10.8c-0.3,4.5-3.1,7.1-7.6,7.2
		C229.8,181.8,222.7,181.8,215.6,181.8C215.6,181.8,215.6,181.8,215.6,181.8z M195.7,172.8c13.5,0,26.7,0,40,0c0-2.6,0-5,0-7.4
		c-13.5,0-26.7,0-40,0C195.7,167.9,195.7,170.3,195.7,172.8z"/>
	<path class="st0" d="M201.5,223.7c2.3,0,4.7-0.1,7,0c4.2,0.2,7,2.9,7.2,7c0.2,3.8,0.2,7.6,0,11.4c-0.2,3.9-3.1,6.8-7,6.9
		c-5,0.1-10,0.1-14.9,0c-3.9-0.1-6.8-3.1-6.9-7c-0.1-3.8-0.1-7.6,0-11.4c0.1-3.8,2.9-6.6,6.7-6.8
		C196.2,223.6,198.9,223.7,201.5,223.7C201.5,223.7,201.5,223.7,201.5,223.7z M195.7,232.6c0,2.5,0,4.9,0,7.4c3.8,0,7.4,0,11,0
		c0-2.6,0-4.9,0-7.4C203,232.6,199.5,232.6,195.7,232.6z"/>
</g>
</svg>
