<?xml version="1.0" encoding="utf-8"?>
<!-- Generator: Adobe Illustrator 26.0.1, SVG Export Plug-In . SVG Version: 6.00 Build 0)  -->
<svg version="1.1" id="Layer_1" xmlns="http://www.w3.org/2000/svg" xmlns:xlink="http://www.w3.org/1999/xlink" x="0px" y="0px"
	 viewBox="0 0 300 300" style="enable-background:new 0 0 300 300;" xml:space="preserve">
<style type="text/css">
	.st0{fill:#F9F9F9;}
</style>
<g>
	<path class="st0" d="M106.6,300c-3.3-1.3-5.4-3.8-7.1-6.9c-3.8-7.2-7.9-14.3-11.8-21.6c-1-1.8-2-2.2-3.9-1.8
		c-8.7,1.9-17.4,3.7-26.1,5.3c-5.5,1-10.5-3.1-10.5-8.7c0-2,0.8-4.2,1.7-6.1c8-17.3,16.1-34.6,24.4-51.9c1.1-2.3,0.8-3.7-0.9-5.3
		c-2.6-2.5-5.7-3.6-9.3-3.8c-2.5-0.2-5.1-0.3-7.6-0.8c-13.4-3-20.4-16.4-15.4-29.2c0.9-2.3,2.1-4.4,3.1-6.6c2.5-6,0.9-12-4.3-15.9
		c-1.9-1.4-3.9-2.6-5.7-4c-11.4-9-11.5-25.1-0.2-34.2c1.1-0.9,2.4-1.7,3.6-2.5c8.4-5.6,9.7-11.2,5.5-20.2c-1.6-3.5-3-7.3-3.3-11.1
		c-0.9-11.3,7.4-21,18.6-22.4c2.1-0.3,4.3-0.4,6.4-0.6c7-0.5,11.9-5.4,12.5-12.4c0.2-2.7,0.3-5.5,0.9-8.1
		c3-13.4,16.4-20.4,29.2-15.4c2.3,0.9,4.4,2.1,6.6,3.1c6,2.5,12,0.9,15.9-4.3c1.5-2,2.7-4.1,4.2-6c9-11.2,24.9-11.2,34,0
		c1.1,1.4,2.1,2.8,3,4.3c5,7.5,10.9,8.9,19.2,5.1c3.7-1.7,7.8-3.3,11.9-3.6c11.2-0.8,20.7,7.4,22.2,18.6c0.3,1.9,0.4,3.9,0.5,5.8
		c0.5,7.7,5.4,12.6,13,13.1c2.5,0.2,5.1,0.3,7.5,0.8c13.4,3,20.4,16.3,15.5,29.2c-0.9,2.3-2.1,4.4-3,6.6c-2.6,6-1,11.9,4.3,15.9
		c1.9,1.4,3.9,2.6,5.7,4c11.5,9.1,11.5,25.2,0,34.3c-1.4,1.2-3,2.2-4.5,3.2c-6.9,4.7-8.4,10.7-4.9,18.3c1.6,3.5,3.3,7.2,3.8,11
		c1.6,13.5-8,23.4-22.8,24.1c-4.1,0.2-7.9,1-10.9,4.1c-1.5,1.5-1.8,2.7-0.8,4.8c8.3,17.3,16.4,34.7,24.5,52.1
		c0.9,1.9,1.7,4.1,1.7,6.1c0,5.5-5,9.7-10.5,8.7c-8.6-1.6-17.2-3.4-25.8-5.2c-2.2-0.5-3.3,0-4.4,2c-3.8,7.1-7.8,14-11.5,21
		c-1.7,3.2-3.8,5.8-7.2,7.2c-1.6,0-3.1,0-4.7,0c-3.6-1.6-5.6-4.5-7.2-8c-5.7-12.5-11.6-24.9-17.5-37.4c-1-2.2-2.1-4.4-3.2-6.7
		c-7.3,3.9-14.6,3.7-21.8,0c-1.3,2.8-2.5,5.4-3.7,7.9c-1.9,4-4.1,5.3-6.8,4c-2.6-1.2-3-3.8-1.2-7.6c0.8-1.8,1.4-3.7,2.5-5.3
		c2.9-4,1.8-7.3-1.1-10.8c-4-4.8-9.7-6.6-15.4-4.2c-2.3,1-4.6,2.2-6.9,3.2c-9.6,3.8-20,0.9-25.8-7.4c-1.4-2-2.4-4.3-3.7-6.7
		c-7,15-14,29.8-21.2,45.2c1.5-0.2,2.3-0.2,3.2-0.4c7.9-1.6,15.9-3.2,23.8-4.9c6.1-1.3,9.3,0.2,12.3,5.6c2.5,4.5,5,9,7.5,13.6
		c2,3.6,4,7.3,6.3,11.3c0.7-1.3,1.1-2.1,1.5-3c2.3-4.8,4.5-9.7,6.9-14.6c1.5-3.2,4-4.4,6.5-3.1c2.4,1.2,3,3.6,1.5,6.8
		c-2.2,4.7-4.6,9.3-6.6,14c-1.5,3.6-3.6,6.6-7.3,8.3C109.8,300,108.2,300,106.6,300z M116.1,222.1c9.1,0.3,14.9,3,19.2,8.5
		c1.6,2.1,3,4.4,4.6,6.4c5.3,6.7,14.9,6.8,20.2,0c1.5-1.9,2.8-4,4.2-6c6.3-8.4,16.4-11.1,26.1-7c2.5,1.1,4.9,2.4,7.5,3.3
		c7.5,2.6,15.2-2.1,16.5-9.8c0.3-1.9,0.4-3.9,0.6-5.8c0.7-12,9.2-20.5,21.2-21.3c1.8-0.1,3.7-0.2,5.5-0.5
		c8.4-1.3,13.1-9.4,10.1-17.3c-0.9-2.4-2.2-4.6-3.2-6.9c-4-9.5-1.3-19.6,7-25.9c2-1.5,4.2-2.8,6.2-4.4c6.5-5.3,6.6-14.4,0.2-19.8
		c-1.9-1.6-4-2.8-5.9-4.3c-8.7-6.5-11.4-16.6-7.2-26.5c1.1-2.5,2.4-4.9,3.3-7.5c2.4-7.3-2.3-15-9.9-16.3c-2-0.3-4.1-0.5-6.1-0.6
		c-11.7-0.7-20.2-9.1-21-20.8c-0.1-1.9-0.2-3.9-0.5-5.8c-1.3-8.4-9.3-13.1-17.3-10.1c-2.4,0.9-4.6,2.2-6.9,3.2
		c-9.5,4-19.6,1.3-25.9-6.9c-1.6-2.1-2.9-4.4-4.6-6.4c-5.3-6.3-14.4-6.3-19.6,0c-1.5,1.8-2.7,3.8-4.1,5.7c-6.6,9-16.7,11.8-27,7.4
		c-2.4-1-4.7-2.3-7.2-3.2c-7.3-2.4-15,2.2-16.4,9.8c-0.3,2-0.5,4.1-0.6,6.1c-0.7,11.8-9.2,20.3-21,21.1c-1.8,0.1-3.7,0.2-5.5,0.5
		c-8.4,1.2-13.2,9.3-10.2,17.2c0.8,2.3,2.1,4.4,3,6.6c4.2,9.9,1.5,20.1-7.2,26.6c-2,1.5-4.1,2.7-5.9,4.2c-6.4,5.3-6.4,14.5,0.1,19.8
		c1.8,1.5,3.8,2.7,5.7,4.1c8.8,6.5,11.5,16.7,7.2,26.8c-1,2.3-2.2,4.6-3.1,6.9c-2.7,7.6,2,15.4,9.9,16.7c1.9,0.3,3.9,0.4,5.8,0.5
		c12,0.8,20.5,9.3,21.2,21.3c0.1,1.8,0.3,3.5,0.5,5.2c0.5,4.5,3,7.7,7,9.8c4.2,2.3,8.2,1.4,12.3-0.4
		C109.1,224.5,113.6,223.1,116.1,222.1z M191.1,291.3c0.4-0.5,0.6-0.6,0.7-0.8c4.4-8,8.9-16,13.3-24c2.8-5.1,6.2-6.7,11.9-5.5
		c7.9,1.6,15.8,3.3,23.8,4.9c1,0.2,2,0.3,3.6,0.6c-7.3-15.5-14.2-30.4-21.4-45.5c-0.5,1.2-0.8,2.1-1.2,2.9
		c-4.5,10.5-15.8,15.6-26.6,12c-2.8-1-5.5-2.5-8.3-3.6c-5.8-2.4-11.8-0.7-15.6,4.4c-0.7,0.9-1.2,2-2,2.9c-1.5,1.6-1.3,3.1-0.4,5
		c6.9,14.6,13.8,29.3,20.6,43.9C189.9,289.2,190.5,290.1,191.1,291.3z"/>
	<path class="st0" d="M155.9,211.1c-48.5-0.1-84.5-31.2-90.7-73.2c-7-46.6,26.1-90.8,72.7-97.3c47-6.5,89.9,25.6,96.9,72.4
		c0.2,1.2,0.3,2.3,0.3,3.5c-0.1,2.4-1.4,3.9-3.7,4.2c-2.3,0.3-4.1-0.7-4.7-3c-0.7-2.8-1-5.8-1.6-8.6c-8.6-38.9-44.8-64.6-84.3-59.9
		c-41.1,5-71,41.7-67.4,83c3.1,35.9,31.2,65.1,67,69.6c40.8,5.1,78.1-22.4,85.3-62.9c0.1-0.7,0.3-1.3,0.4-2c0.7-2.9,2.7-4.3,5.3-3.7
		c2.4,0.5,3.7,2.7,3.3,5.4c-1.4,8.7-3.8,17.2-7.9,25C210.5,194.3,184.6,209.7,155.9,211.1z"/>
	<path class="st0" d="M115.4,156.7c-0.4-0.6-0.6-0.9-0.8-1.1c-12.1-11.5-18-26.2-21.3-42.1c-1.2-5.6,2.3-8.7,8-7.6
		c8.9,1.8,17.5,4.7,25.6,9c0.4,0.2,0.8,0.4,1.5,0.6c0.5-2.1,0.8-4,1.3-5.8c3-11.6,8.2-22.3,14.9-32.2c3-4.4,7.8-4.4,10.8,0
		c7.5,11.1,13.2,23,15.8,36.2c0.1,0.5,0.3,1.1,0.4,1.1c7.5-2.6,14.8-5.3,22.1-7.8c1.8-0.6,3.8-0.9,5.7-1.3c4.7-1,8.4,2.1,7.5,6.9
		c-3,15.9-8.9,30.5-20.6,42.1c-0.5,0.5-1,0.9-2.2,2.1c2.2,0,3.5,0,4.9,0c3.2,0,6.4-0.1,9.7,0.1c2.5,0.1,4,1.7,4.1,4.1
		c0.1,2.5-1.4,4-3.8,4.4c-0.9,0.2-1.7,0.1-2.6,0.1c-30.8,0-61.7,0-92.5,0c-0.8,0-1.6,0-2.3-0.1c-2.5-0.4-4.2-2.2-4.1-4.5
		c0.1-2.3,1.8-4,4.4-4.1c3.5-0.1,7,0,10.5-0.1C113.2,156.8,114.2,156.8,115.4,156.7z M154.5,156.4c10.3,1.9,18.6-1.2,25.7-8.2
		c8.2-8.1,12.8-18.2,16.1-29.1c0.3-1.2,0.5-2.4,0.9-4c-14.5,3.8-27.4,9.2-36.4,21.3C156.4,142.4,154.3,149.1,154.5,156.4z
		 M145.2,156.5c0.1-0.2,0.2-0.4,0.3-0.5c0-0.6,0-1.2,0-1.8c-0.5-9-4.2-16.5-10.5-22.8c-7.5-7.5-16.8-11.8-26.8-14.8
		c-1.6-0.5-3.3-0.9-5.4-1.4c3.9,14.4,9.3,27.2,21.1,36.4C130.2,156.6,137.4,157.8,145.2,156.5z M150,85.3
		c-6.8,11.1-11.7,22.3-13.3,34.7c-0.1,0.7,0.7,1.7,1.3,2.3c2.8,3.1,5.7,6.1,8.5,9.2c1.3,1.6,2.3,3.5,3,4.6
		c4.4-4.8,8.7-9.5,12.9-14.2c0.5-0.6,0.8-1.7,0.7-2.5C161.5,107.2,156.7,96.2,150,85.3z"/>
</g>
</svg>
