<?xml version="1.0" encoding="utf-8"?>
<!-- Generator: Adobe Illustrator 26.0.1, SVG Export Plug-In . SVG Version: 6.00 Build 0)  -->
<svg version="1.1" id="Layer_1" xmlns="http://www.w3.org/2000/svg" xmlns:xlink="http://www.w3.org/1999/xlink" x="0px" y="0px"
	 viewBox="0 0 300 300" style="enable-background:new 0 0 300 300;" xml:space="preserve">
<style type="text/css">
	.st0{fill:#F9F9F9;}
</style>
<g>
	<path class="st0" d="M0,26.9c1.4-4.3,3-8.4,6.5-11.5c4.5-4,9.8-5.4,15.6-5.4c45.3,0,90.6,0,135.9,0c26.7,0,53.5,0,80.2,0
		c9.8,0,17.2,4.6,20.2,12.6c2.1,5.5,1.5,11.3,1.5,17.2c-3.3,0-6.4,0-9.9,0c0-2.7,0-5.4,0-8.1C250,23.9,246.1,20,238.3,20
		c-72.2,0-144.5,0-216.7,0C14,20,10,24,10,31.5c0,65.7,0,131.4,0,197.1c0,7.4,4,11.4,11.4,11.4c2.7,0,5.4,0,8.4,0c0,3.4,0,6.5,0,9.9
		c-8.1,0.2-16.1,1-22.8-4.9c-3.7-3.2-5.5-7.5-6.9-11.9C0,164.4,0,95.7,0,26.9z"/>
	<path class="st0" d="M170.2,290c-36.3,0-72.6,0-109,0c-10.4,0-18-5.5-20.5-15c-0.6-2.2-0.8-4.6-0.8-6.9c0-65.4,0-130.8,0-196.2
		c0-10.9,5.5-18.6,15.3-21.1c2.2-0.6,4.6-0.7,7-0.7c71.9,0,143.7,0,215.6,0c14,0,22.2,8.2,22.2,22.2c0,65.1,0,130.2,0,195.4
		c0,14.3-8.1,22.4-22.3,22.4C241.9,290,206.1,290,170.2,290z M170,60c-36,0-72,0-108.1,0c-8.3,0-12,3.7-12,12c0,13,0,26,0,39
		c0,52.3,0,104.7,0,157c0,8,3.8,12,11.4,12c72.4,0,144.9,0,217.3,0c7.4,0,11.4-4,11.4-11.4c0-65.7,0-131.4,0-197.1
		c0-1.2,0-2.4-0.3-3.5c-1.2-5.3-5.1-7.9-11.7-7.9C242.1,60,206,60,170,60z"/>
	<path class="st0" d="M20.1,39.8c0-3.2,0-6.3,0-9.6c3.2,0,6.3,0,9.6,0c0,3.2,0,6.3,0,9.6C26.6,39.8,23.5,39.8,20.1,39.8z"/>
	<path class="st0" d="M49.8,30.2c0,3.1,0,6.2,0,9.5c-3.1,0-6.3,0-9.6,0c0-3.1,0-6.2,0-9.5C43.3,30.2,46.4,30.2,49.8,30.2z"/>
	<path class="st0" d="M60.2,30.2c3.3,0,6.4,0,9.6,0c0,3.2,0,6.3,0,9.6c-3.2,0-6.3,0-9.6,0C60.2,36.6,60.2,33.6,60.2,30.2z"/>
	<path class="st0" d="M199.9,247.9c-3.1,1.2-5.8,2.2-8.4,3.5c-0.7,0.3-1.4,1.6-1.4,2.4c-0.2,3.4,0,6.8-0.1,10.3
		c-0.1,4.1-1.8,6-5.9,6c-9.4,0.1-18.7,0.1-28.1,0c-4,0-5.9-1.9-5.9-6c-0.1-3.4-0.1-6.8,0-10.3c0-1.5-0.4-2.4-1.9-2.7
		c-0.9-0.2-1.8-0.6-2.7-1c-5.1-2.1-5.1-2.1-9.1,1.9c-1.6,1.6-3.1,3.2-4.8,4.7c-2.5,2.3-5.2,2.5-7.6,0.2c-7.1-6.9-14-13.9-20.9-20.9
		c-2.4-2.4-2.2-5,0.3-7.5c2.3-2.5,4.8-4.9,7.3-7.2c1.2-1.2,1.8-2.2,0.7-3.8c-0.5-0.8-0.9-1.8-1.2-2.7c-2-4.8-2-4.8-7.4-4.8
		c-2.4,0-4.9,0.1-7.3-0.1c-3.3-0.2-5.1-1.9-5.2-5.2c-0.1-9.9-0.1-19.7,0-29.6c0-3.4,2-5.1,5.7-5.2c3.4-0.1,6.8-0.1,10.3,0
		c1.7,0.1,2.4-0.5,2.9-2.1c0.8-2.6,2.9-5.3,2.5-7.6c-0.4-2.2-3.3-3.9-5.2-5.7c-6.7-6.8-6.8-7.4,0.1-14.2c5.5-5.5,11-11.1,16.6-16.6
		c3.3-3.3,5.7-3.3,9,0c2.4,2.3,4.6,4.8,7.1,7c0.7,0.6,2.6,0.9,3.2,0.4c2.4-1.9,7.2-0.5,7.6-4.9c0.3-3.4,0-6.8,0.1-10.2
		c0.1-4.1,1.9-5.9,6-5.9c9.4,0,18.7,0,28.1,0c4.1,0,5.8,1.8,5.9,6c0.1,3.4-0.1,6.8,0.1,10.2c0,0.9,0.9,1.8,1.7,2.5
		c0.5,0.5,1.5,0.4,2.1,0.9c4.5,3.3,7.7,1.6,10.6-2.3c1.2-1.6,2.8-3,4.3-4.3c2.4-2.1,4.9-2.3,7.1-0.1c7.1,7,14.2,14,21.1,21.1
		c2.2,2.3,2.1,4.9-0.1,7.3c-2.5,2.6-5,5.2-7.7,7.7c-1.1,1-1.4,1.9-0.6,3.3c0.5,0.8,0.9,1.8,1.2,2.6c2.2,5.1,2.2,5.1,7.6,5.1
		c2.3,0,4.7-0.1,7,0c3.6,0.2,5.5,2,5.5,5.5c0.1,9.7,0.1,19.3,0,29c0,3.6-1.9,5.3-5.5,5.5c-3.4,0.1-6.8,0.2-10.2,0
		c-1.9-0.1-2.9,0.6-3.3,2.4c-0.2,0.8-0.6,1.7-0.9,2.5c-2,4.8-2,4.8,1.8,8.6c1.7,1.7,3.5,3.4,5.2,5.2c2.3,2.5,2.3,5.1-0.1,7.5
		c-6.8,6.9-13.6,13.7-20.5,20.5c-2.6,2.5-5.3,2.4-8-0.2C205.4,253.8,202.6,250.8,199.9,247.9z M211.9,246.5
		c4.9-4.9,9.5-9.5,14.4-14.4c-2.2-2.2-4.7-4.6-7.1-7c-2.9-2.9-3-4.3-1.4-8.1c1.8-4,3.4-8.1,5-12.1c1.4-3.8,2.6-4.8,6.7-4.8
		c3.4,0,6.8,0,10.4,0c0-6.8,0-13.3,0-19.6c-0.4-0.2-0.6-0.3-0.7-0.3c-3.2,0-6.4,0-9.7-0.1c-4.1,0-5.2-1-6.6-4.8
		c-1.5-4-3.1-8-4.9-11.9c-1.8-3.9-1.7-5.4,1.3-8.3c2.4-2.4,4.9-4.7,7.2-6.9c-5-5-9.6-9.6-14.3-14.2c0.1,0-0.1,0-0.3,0.2
		c-2.3,2.3-4.6,4.6-6.9,6.8c-3,2.9-4.4,3.1-8.1,1.4c-4-1.8-8-3.5-12.1-5.1c-3.9-1.5-4.9-2.7-4.9-6.9c0-3.4,0-6.7,0-10
		c-6.9,0-13.4,0-20,0c0,3.7,0,7.1,0,10.5c0,3.7-1,5-4.5,6.3c-4.3,1.7-8.5,3.4-12.7,5.2c-3.6,1.6-5,1.4-7.8-1.4c-2.5-2.5-4.9-5-6.9-7
		c-4.9,4.9-9.6,9.5-14.5,14.3c2.3,2.2,4.9,4.6,7.4,7.1c2.5,2.5,2.7,4.3,1.2,7.7c-1.8,4.1-3.6,8.2-5.1,12.4c-1.3,3.6-2.5,4.6-6.4,4.7
		c-3.5,0-7,0-10.4,0c0,6.9,0,13.4,0,20c3.7,0,7.1,0,10.5,0c3.3-0.1,5.2,1.4,6.3,4.5c1.6,4.3,3.4,8.5,5.2,12.7
		c1.4,3.3,1.3,5.1-1.3,7.6c-2.5,2.5-5.1,4.8-7.4,7.1c4.9,4.9,9.5,9.5,14.5,14.4c2.2-2.3,4.7-4.9,7.2-7.5c2.2-2.3,4.5-2.6,7.4-1.2
		c4.2,2,8.6,3.8,12.9,5.4c3,1.1,4.4,2.9,4.4,6.1c-0.1,3.6,0,7.2,0,10.8c6.8,0,13.3,0,20,0c0-3.7,0-7.2,0-10.7c0-3.1,1.4-5,4.4-6.1
		c4.4-1.6,8.7-3.5,12.9-5.3c3.4-1.5,4.9-1.3,7.6,1.4C207.3,241.5,209.7,244.1,211.9,246.5z"/>
	<path class="st0" d="M279.9,90.3c0,3.2,0,6.3,0,9.6c-73.2,0-146.3,0-219.7,0c0-3.1,0-6.2,0-9.6C133.4,90.3,206.6,90.3,279.9,90.3z"
		/>
	<path class="st0" d="M100,115c0,3.1,0.1,5.8-0.1,8.5c0,0.6-1.2,1.5-1.8,1.5c-12.1,0.1-24.2,0.1-36.3,0c-0.6,0-1.7-1.1-1.8-1.8
		c-0.8-8.1-0.8-8.1,7.3-8.1c9.7,0,19.5,0,29.2,0C97.6,115,98.6,115,100,115z"/>
	<path class="st0" d="M60,135.2c10.1,0,19.9,0,30,0c0,2.9,0.1,5.6-0.1,8.3c0,0.6-1.2,1.5-1.8,1.5c-8.8,0.1-17.5,0.1-26.3,0
		c-0.6,0-1.7-1-1.8-1.5C59.9,140.8,60,138.1,60,135.2z"/>
	<path class="st0" d="M280,260.2c0,3.3,0,6.3,0,9.8c-5,0-9.9,0-14.9,0c-4.9,0-9.7,0-14.8,0c0-3.3,0-6.5,0-9.8
		C260.1,260.2,269.9,260.2,280,260.2z"/>
	<path class="st0" d="M60.3,70.2c3.2,0,6.3,0,9.7,0c0,2.9,0.1,5.6-0.1,8.2c0,0.6-1,1.1-1.5,1.6c-0.1,0.1-0.4,0-0.6,0
		C59.5,80.5,58.9,79.7,60.3,70.2z"/>
	<path class="st0" d="M89.8,80.1c-2.9,0-5.6,0.1-8.2-0.1c-0.6,0-1.4-1.1-1.5-1.8c-0.2-2.5-0.1-5-0.1-7.8c3.3,0,6.4,0,9.8,0
		C89.8,73.5,89.8,76.6,89.8,80.1z"/>
	<path class="st0" d="M109.9,79.9c-3.3,0-6.4,0-9.6,0c0-3.2,0-6.3,0-9.6c3.2,0,6.3,0,9.6,0C109.9,73.4,109.9,76.5,109.9,79.9z"/>
	<path class="st0" d="M170,155.1c19.4,0.1,35.1,15.8,35,35.1c-0.1,19.3-15.8,34.9-35.2,34.8c-19.2-0.1-34.8-15.7-34.8-34.9
		C134.9,170.8,150.7,155,170,155.1z M169.9,165.1c-13.7,0-25,11.3-24.9,25c0.1,13.7,11.4,24.9,25,24.9c13.6-0.1,25.1-11.5,24.9-25
		C194.9,176.3,183.6,165.1,169.9,165.1z"/>
</g>
</svg>
